<svg width="400" height="841" viewBox="0 0 400 841" fill="none" xmlns="http://www.w3.org/2000/svg">
<g filter="url(#filter0_n_48_151)">
<rect width="400" height="800" transform="translate(0 40.9039)" fill="#3D6B15"/>
<g filter="url(#filter1_d_48_151)">
<rect x="-16.1927" y="35.8153" width="432" height="33.9964" transform="rotate(-1.56725 -16.1927 35.8153)" fill="#3D6B15"/>
</g>
<path d="M36.4326 57.6405L39.9226 63.8934L46.9986 62.7938L42.1302 68.0452L45.3625 74.4351L38.8637 71.4278L33.7854 76.4765L34.6373 69.3664L28.2664 66.0968L35.2918 64.7099L36.4326 57.6405Z" fill="#739A52"/>
<path d="M89.6017 57.6405L93.0917 63.8934L100.168 62.7938L95.2993 68.0452L98.5316 74.4351L92.0328 71.4278L86.9545 76.4765L87.8064 69.3664L81.4355 66.0968L88.4609 64.7099L89.6017 57.6405Z" fill="#739A52"/>
<path d="M142.771 57.6405L146.261 63.8934L153.337 62.7938L148.468 68.0452L151.701 74.4351L145.202 71.4278L140.124 76.4765L140.976 69.3664L134.605 66.0968L141.63 64.7099L142.771 57.6405Z" fill="#739A52"/>
<path d="M195.94 57.6405L199.43 63.8934L206.506 62.7938L201.638 68.0452L204.87 74.4351L198.371 71.4278L193.293 76.4765L194.145 69.3664L187.774 66.0968L194.799 64.7099L195.94 57.6405Z" fill="#739A52"/>
<path d="M249.109 57.6405L252.599 63.8934L259.675 62.7938L254.807 68.0452L258.039 74.4351L251.54 71.4278L246.462 76.4765L247.314 69.3664L240.943 66.0968L247.968 64.7099L249.109 57.6405Z" fill="#739A52"/>
<path d="M302.278 57.6405L305.768 63.8934L312.844 62.7938L307.976 68.0452L311.208 74.4351L304.709 71.4278L299.631 76.4765L300.483 69.3664L294.112 66.0968L301.137 64.7099L302.278 57.6405Z" fill="#739A52"/>
<path d="M355.447 57.6405L358.937 63.8934L366.013 62.7938L361.145 68.0452L364.377 74.4351L357.878 71.4278L352.8 76.4765L353.652 69.3664L347.281 66.0968L354.307 64.7099L355.447 57.6405Z" fill="#739A52"/>
<path d="M9.84808 97.8095L13.338 104.062L20.414 102.963L15.5456 108.214L18.778 114.604L12.2792 111.597L7.20085 116.646L8.05277 109.536L1.68188 106.266L8.7072 104.879L9.84808 97.8095Z" fill="#739A52"/>
<path d="M63.0172 97.8095L66.5072 104.062L73.5832 102.963L68.7148 108.214L71.9471 114.604L65.4483 111.597L60.37 116.646L61.2219 109.536L54.851 106.266L61.8763 104.879L63.0172 97.8095Z" fill="#739A52"/>
<path d="M116.186 97.8095L119.676 104.062L126.752 102.963L121.884 108.214L125.116 114.604L118.617 111.597L113.539 116.646L114.391 109.536L108.02 106.266L115.045 104.879L116.186 97.8095Z" fill="#739A52"/>
<path d="M169.355 97.8095L172.845 104.062L179.921 102.963L175.053 108.214L178.285 114.604L171.786 111.597L166.708 116.646L167.56 109.536L161.189 106.266L168.215 104.879L169.355 97.8095Z" fill="#739A52"/>
<path d="M222.525 97.8095L226.015 104.062L233.091 102.963L228.222 108.214L231.454 114.604L224.956 111.597L219.877 116.646L220.729 109.536L214.358 106.266L221.384 104.879L222.525 97.8095Z" fill="#739A52"/>
<path d="M275.694 97.8095L279.184 104.062L286.26 102.963L281.391 108.214L284.624 114.604L278.125 111.597L273.046 116.646L273.898 109.536L267.527 106.266L274.553 104.879L275.694 97.8095Z" fill="#739A52"/>
<path d="M328.863 97.8095L332.353 104.062L339.429 102.963L334.56 108.214L337.793 114.604L331.294 111.597L326.216 116.646L327.068 109.536L320.697 106.266L327.722 104.879L328.863 97.8095Z" fill="#739A52"/>
<path d="M382.032 97.8095L385.522 104.062L392.598 102.963L387.729 108.214L390.962 114.604L384.463 111.597L379.385 116.646L380.237 109.536L373.866 106.266L380.891 104.879L382.032 97.8095Z" fill="#739A52"/>
<path d="M36.4326 137.979L39.9226 144.232L46.9986 143.132L42.1302 148.383L45.3625 154.773L38.8637 151.766L33.7854 156.815L34.6373 149.705L28.2664 146.435L35.2918 145.048L36.4326 137.979Z" fill="#739A52"/>
<path d="M89.6017 137.979L93.0917 144.232L100.168 143.132L95.2993 148.383L98.5316 154.773L92.0328 151.766L86.9545 156.815L87.8064 149.705L81.4355 146.435L88.4609 145.048L89.6017 137.979Z" fill="#739A52"/>
<path d="M142.771 137.979L146.261 144.232L153.337 143.132L148.468 148.383L151.701 154.773L145.202 151.766L140.124 156.815L140.976 149.705L134.605 146.435L141.63 145.048L142.771 137.979Z" fill="#739A52"/>
<path d="M195.94 137.979L199.43 144.232L206.506 143.132L201.638 148.383L204.87 154.773L198.371 151.766L193.293 156.815L194.145 149.705L187.774 146.435L194.799 145.048L195.94 137.979Z" fill="#739A52"/>
<path d="M249.109 137.979L252.599 144.232L259.675 143.132L254.807 148.383L258.039 154.773L251.54 151.766L246.462 156.815L247.314 149.705L240.943 146.435L247.968 145.048L249.109 137.979Z" fill="#739A52"/>
<path d="M302.278 137.979L305.768 144.232L312.844 143.132L307.976 148.383L311.208 154.773L304.709 151.766L299.631 156.815L300.483 149.705L294.112 146.435L301.137 145.048L302.278 137.979Z" fill="#739A52"/>
<path d="M355.447 137.979L358.937 144.232L366.013 143.132L361.145 148.383L364.377 154.773L357.878 151.766L352.8 156.815L353.652 149.705L347.281 146.435L354.307 145.048L355.447 137.979Z" fill="#739A52"/>
<path d="M9.84808 178.148L13.338 184.401L20.414 183.301L15.5456 188.553L18.778 194.942L12.2792 191.935L7.20085 196.984L8.05277 189.874L1.68188 186.604L8.7072 185.217L9.84808 178.148Z" fill="#739A52"/>
<path d="M63.0172 178.148L66.5072 184.401L73.5832 183.301L68.7148 188.553L71.9471 194.942L65.4483 191.935L60.37 196.984L61.2219 189.874L54.851 186.604L61.8763 185.217L63.0172 178.148Z" fill="#739A52"/>
<path d="M116.186 178.148L119.676 184.401L126.752 183.301L121.884 188.553L125.116 194.942L118.617 191.935L113.539 196.984L114.391 189.874L108.02 186.604L115.045 185.217L116.186 178.148Z" fill="#739A52"/>
<path d="M169.355 178.148L172.845 184.401L179.921 183.301L175.053 188.553L178.285 194.942L171.786 191.935L166.708 196.984L167.56 189.874L161.189 186.604L168.215 185.217L169.355 178.148Z" fill="#739A52"/>
<path d="M222.525 178.148L226.015 184.401L233.091 183.301L228.222 188.553L231.454 194.942L224.956 191.935L219.877 196.984L220.729 189.874L214.358 186.604L221.384 185.217L222.525 178.148Z" fill="#739A52"/>
<path d="M275.694 178.148L279.184 184.401L286.26 183.301L281.391 188.553L284.624 194.942L278.125 191.935L273.046 196.984L273.898 189.874L267.527 186.604L274.553 185.217L275.694 178.148Z" fill="#739A52"/>
<path d="M328.863 178.148L332.353 184.401L339.429 183.301L334.56 188.553L337.793 194.942L331.294 191.935L326.216 196.984L327.068 189.874L320.697 186.604L327.722 185.217L328.863 178.148Z" fill="#739A52"/>
<path d="M382.032 178.148L385.522 184.401L392.598 183.301L387.729 188.553L390.962 194.942L384.463 191.935L379.385 196.984L380.237 189.874L373.866 186.604L380.891 185.217L382.032 178.148Z" fill="#739A52"/>
<path d="M36.4326 218.317L39.9226 224.57L46.9986 223.47L42.1302 228.722L45.3625 235.112L38.8637 232.104L33.7854 237.153L34.6373 230.043L28.2664 226.773L35.2918 225.386L36.4326 218.317Z" fill="#739A52"/>
<path d="M89.6017 218.317L93.0917 224.57L100.168 223.47L95.2993 228.722L98.5316 235.112L92.0328 232.104L86.9545 237.153L87.8064 230.043L81.4355 226.773L88.4609 225.386L89.6017 218.317Z" fill="#739A52"/>
<path d="M142.771 218.317L146.261 224.57L153.337 223.47L148.468 228.722L151.701 235.112L145.202 232.104L140.124 237.153L140.976 230.043L134.605 226.773L141.63 225.386L142.771 218.317Z" fill="#739A52"/>
<path d="M195.94 218.317L199.43 224.57L206.506 223.47L201.638 228.722L204.87 235.112L198.371 232.104L193.293 237.153L194.145 230.043L187.774 226.773L194.799 225.386L195.94 218.317Z" fill="#739A52"/>
<path d="M249.109 218.317L252.599 224.57L259.675 223.47L254.807 228.722L258.039 235.112L251.54 232.104L246.462 237.153L247.314 230.043L240.943 226.773L247.968 225.386L249.109 218.317Z" fill="#739A52"/>
<path d="M302.278 218.317L305.768 224.57L312.844 223.47L307.976 228.722L311.208 235.112L304.709 232.104L299.631 237.153L300.483 230.043L294.112 226.773L301.137 225.386L302.278 218.317Z" fill="#739A52"/>
<path d="M355.447 218.317L358.937 224.57L366.013 223.47L361.145 228.722L364.377 235.112L357.878 232.104L352.8 237.153L353.652 230.043L347.281 226.773L354.307 225.386L355.447 218.317Z" fill="#739A52"/>
<path d="M9.84808 258.486L13.338 264.739L20.414 263.639L15.5456 268.891L18.778 275.281L12.2792 272.273L7.20085 277.322L8.05277 270.212L1.68188 266.942L8.7072 265.555L9.84808 258.486Z" fill="#739A52"/>
<path d="M63.0172 258.486L66.5072 264.739L73.5832 263.639L68.7148 268.891L71.9471 275.281L65.4483 272.273L60.37 277.322L61.2219 270.212L54.851 266.942L61.8763 265.555L63.0172 258.486Z" fill="#739A52"/>
<path d="M116.186 258.486L119.676 264.739L126.752 263.639L121.884 268.891L125.116 275.281L118.617 272.273L113.539 277.322L114.391 270.212L108.02 266.942L115.045 265.555L116.186 258.486Z" fill="#739A52"/>
<path d="M169.355 258.486L172.845 264.739L179.921 263.639L175.053 268.891L178.285 275.281L171.786 272.273L166.708 277.322L167.56 270.212L161.189 266.942L168.215 265.555L169.355 258.486Z" fill="#739A52"/>
<path d="M222.525 258.486L226.015 264.739L233.091 263.639L228.222 268.891L231.454 275.281L224.956 272.273L219.877 277.322L220.729 270.212L214.358 266.942L221.384 265.555L222.525 258.486Z" fill="#739A52"/>
<path d="M275.694 258.486L279.184 264.739L286.26 263.639L281.391 268.891L284.624 275.281L278.125 272.273L273.046 277.322L273.898 270.212L267.527 266.942L274.553 265.555L275.694 258.486Z" fill="#739A52"/>
<path d="M328.863 258.486L332.353 264.739L339.429 263.639L334.56 268.891L337.793 275.281L331.294 272.273L326.216 277.322L327.068 270.212L320.697 266.942L327.722 265.555L328.863 258.486Z" fill="#739A52"/>
<path d="M382.032 258.486L385.522 264.739L392.598 263.639L387.729 268.891L390.962 275.281L384.463 272.273L379.385 277.322L380.237 270.212L373.866 266.942L380.891 265.555L382.032 258.486Z" fill="#739A52"/>
<path d="M36.4326 298.655L39.9226 304.908L46.9986 303.809L42.1302 309.06L45.3625 315.45L38.8637 312.443L33.7854 317.491L34.6373 310.381L28.2664 307.112L35.2918 305.725L36.4326 298.655Z" fill="#739A52"/>
<path d="M89.6017 298.655L93.0917 304.908L100.168 303.809L95.2993 309.06L98.5316 315.45L92.0328 312.443L86.9545 317.491L87.8064 310.381L81.4355 307.112L88.4609 305.725L89.6017 298.655Z" fill="#739A52"/>
<path d="M142.771 298.655L146.261 304.908L153.337 303.809L148.468 309.06L151.701 315.45L145.202 312.443L140.124 317.491L140.976 310.381L134.605 307.112L141.63 305.725L142.771 298.655Z" fill="#739A52"/>
<path d="M195.94 298.655L199.43 304.908L206.506 303.809L201.638 309.06L204.87 315.45L198.371 312.443L193.293 317.491L194.145 310.381L187.774 307.112L194.799 305.725L195.94 298.655Z" fill="#739A52"/>
<path d="M249.109 298.655L252.599 304.908L259.675 303.809L254.807 309.06L258.039 315.45L251.54 312.443L246.462 317.491L247.314 310.381L240.943 307.112L247.968 305.725L249.109 298.655Z" fill="#739A52"/>
<path d="M302.278 298.655L305.768 304.908L312.844 303.809L307.976 309.06L311.208 315.45L304.709 312.443L299.631 317.491L300.483 310.381L294.112 307.112L301.137 305.725L302.278 298.655Z" fill="#739A52"/>
<path d="M355.447 298.655L358.937 304.908L366.013 303.809L361.145 309.06L364.377 315.45L357.878 312.443L352.8 317.491L353.652 310.381L347.281 307.112L354.307 305.725L355.447 298.655Z" fill="#739A52"/>
<path d="M9.84808 338.824L13.338 345.077L20.414 343.978L15.5456 349.229L18.778 355.619L12.2792 352.612L7.20085 357.66L8.05277 350.55L1.68188 347.281L8.7072 345.894L9.84808 338.824Z" fill="#739A52"/>
<path d="M63.0172 338.824L66.5072 345.077L73.5832 343.978L68.7148 349.229L71.9471 355.619L65.4483 352.612L60.37 357.66L61.2219 350.55L54.851 347.281L61.8763 345.894L63.0172 338.824Z" fill="#739A52"/>
<path d="M116.186 338.824L119.676 345.077L126.752 343.978L121.884 349.229L125.116 355.619L118.617 352.612L113.539 357.66L114.391 350.55L108.02 347.281L115.045 345.894L116.186 338.824Z" fill="#739A52"/>
<path d="M169.355 338.824L172.845 345.077L179.921 343.978L175.053 349.229L178.285 355.619L171.786 352.612L166.708 357.66L167.56 350.55L161.189 347.281L168.215 345.894L169.355 338.824Z" fill="#739A52"/>
<path d="M222.525 338.824L226.015 345.077L233.091 343.978L228.222 349.229L231.454 355.619L224.956 352.612L219.877 357.66L220.729 350.55L214.358 347.281L221.384 345.894L222.525 338.824Z" fill="#739A52"/>
<path d="M275.694 338.824L279.184 345.077L286.26 343.978L281.391 349.229L284.624 355.619L278.125 352.612L273.046 357.66L273.898 350.55L267.527 347.281L274.553 345.894L275.694 338.824Z" fill="#739A52"/>
<path d="M328.863 338.824L332.353 345.077L339.429 343.978L334.56 349.229L337.793 355.619L331.294 352.612L326.216 357.66L327.068 350.55L320.697 347.281L327.722 345.894L328.863 338.824Z" fill="#739A52"/>
<path d="M382.032 338.824L385.522 345.077L392.598 343.978L387.729 349.229L390.962 355.619L384.463 352.612L379.385 357.66L380.237 350.55L373.866 347.281L380.891 345.894L382.032 338.824Z" fill="#739A52"/>
<path d="M36.4326 378.993L39.9226 385.246L46.9986 384.147L42.1302 389.398L45.3625 395.788L38.8637 392.781L33.7854 397.83L34.6373 390.719L28.2664 387.45L35.2918 386.063L36.4326 378.993Z" fill="#739A52"/>
<path d="M89.6017 378.993L93.0917 385.246L100.168 384.147L95.2993 389.398L98.5316 395.788L92.0328 392.781L86.9545 397.83L87.8064 390.719L81.4355 387.45L88.4609 386.063L89.6017 378.993Z" fill="#739A52"/>
<path d="M142.771 378.993L146.261 385.246L153.337 384.147L148.468 389.398L151.701 395.788L145.202 392.781L140.124 397.83L140.976 390.719L134.605 387.45L141.63 386.063L142.771 378.993Z" fill="#739A52"/>
<path d="M195.94 378.993L199.43 385.246L206.506 384.147L201.638 389.398L204.87 395.788L198.371 392.781L193.293 397.83L194.145 390.719L187.774 387.45L194.799 386.063L195.94 378.993Z" fill="#739A52"/>
<path d="M249.109 378.993L252.599 385.246L259.675 384.147L254.807 389.398L258.039 395.788L251.54 392.781L246.462 397.83L247.314 390.719L240.943 387.45L247.968 386.063L249.109 378.993Z" fill="#739A52"/>
<path d="M302.278 378.993L305.768 385.246L312.844 384.147L307.976 389.398L311.208 395.788L304.709 392.781L299.631 397.83L300.483 390.719L294.112 387.45L301.137 386.063L302.278 378.993Z" fill="#739A52"/>
<path d="M355.447 378.993L358.937 385.246L366.013 384.147L361.145 389.398L364.377 395.788L357.878 392.781L352.8 397.83L353.652 390.719L347.281 387.45L354.307 386.063L355.447 378.993Z" fill="#739A52"/>
<path d="M9.84808 419.163L13.338 425.415L20.414 424.316L15.5456 429.567L18.778 435.957L12.2792 432.95L7.20085 437.999L8.05277 430.889L1.68188 427.619L8.7072 426.232L9.84808 419.163Z" fill="#739A52"/>
<path d="M63.0172 419.163L66.5072 425.415L73.5832 424.316L68.7148 429.567L71.9471 435.957L65.4483 432.95L60.37 437.999L61.2219 430.889L54.851 427.619L61.8763 426.232L63.0172 419.163Z" fill="#739A52"/>
<path d="M116.186 419.163L119.676 425.415L126.752 424.316L121.884 429.567L125.116 435.957L118.617 432.95L113.539 437.999L114.391 430.889L108.02 427.619L115.045 426.232L116.186 419.163Z" fill="#739A52"/>
<path d="M169.355 419.163L172.845 425.415L179.921 424.316L175.053 429.567L178.285 435.957L171.786 432.95L166.708 437.999L167.56 430.889L161.189 427.619L168.215 426.232L169.355 419.163Z" fill="#739A52"/>
<path d="M222.525 419.163L226.015 425.415L233.091 424.316L228.222 429.567L231.454 435.957L224.956 432.95L219.877 437.999L220.729 430.889L214.358 427.619L221.384 426.232L222.525 419.163Z" fill="#739A52"/>
<path d="M275.694 419.163L279.184 425.415L286.26 424.316L281.391 429.567L284.624 435.957L278.125 432.95L273.046 437.999L273.898 430.889L267.527 427.619L274.553 426.232L275.694 419.163Z" fill="#739A52"/>
<path d="M328.863 419.163L332.353 425.415L339.429 424.316L334.56 429.567L337.793 435.957L331.294 432.95L326.216 437.999L327.068 430.889L320.697 427.619L327.722 426.232L328.863 419.163Z" fill="#739A52"/>
<path d="M382.032 419.163L385.522 425.415L392.598 424.316L387.729 429.567L390.962 435.957L384.463 432.95L379.385 437.999L380.237 430.889L373.866 427.619L380.891 426.232L382.032 419.163Z" fill="#739A52"/>
<path d="M36.4326 459.332L39.9226 465.584L46.9986 464.485L42.1302 469.736L45.3625 476.126L38.8637 473.119L33.7854 478.168L34.6373 471.057L28.2664 467.788L35.2918 466.401L36.4326 459.332Z" fill="#739A52"/>
<path d="M89.6017 459.332L93.0917 465.584L100.168 464.485L95.2993 469.736L98.5316 476.126L92.0328 473.119L86.9545 478.168L87.8064 471.057L81.4355 467.788L88.4609 466.401L89.6017 459.332Z" fill="#739A52"/>
<path d="M142.771 459.332L146.261 465.584L153.337 464.485L148.468 469.736L151.701 476.126L145.202 473.119L140.124 478.168L140.976 471.057L134.605 467.788L141.63 466.401L142.771 459.332Z" fill="#739A52"/>
<path d="M195.94 459.332L199.43 465.584L206.506 464.485L201.638 469.736L204.87 476.126L198.371 473.119L193.293 478.168L194.145 471.057L187.774 467.788L194.799 466.401L195.94 459.332Z" fill="#739A52"/>
<path d="M249.109 459.332L252.599 465.584L259.675 464.485L254.807 469.736L258.039 476.126L251.54 473.119L246.462 478.168L247.314 471.057L240.943 467.788L247.968 466.401L249.109 459.332Z" fill="#739A52"/>
<path d="M302.278 459.332L305.768 465.584L312.844 464.485L307.976 469.736L311.208 476.126L304.709 473.119L299.631 478.168L300.483 471.057L294.112 467.788L301.137 466.401L302.278 459.332Z" fill="#739A52"/>
<path d="M355.447 459.332L358.937 465.584L366.013 464.485L361.145 469.736L364.377 476.126L357.878 473.119L352.8 478.168L353.652 471.057L347.281 467.788L354.307 466.401L355.447 459.332Z" fill="#739A52"/>
<path d="M9.84808 499.501L13.338 505.754L20.414 504.654L15.5456 509.905L18.778 516.295L12.2792 513.288L7.20085 518.337L8.05277 511.227L1.68188 507.957L8.7072 506.57L9.84808 499.501Z" fill="#739A52"/>
<path d="M63.0172 499.501L66.5072 505.754L73.5832 504.654L68.7148 509.905L71.9471 516.295L65.4483 513.288L60.37 518.337L61.2219 511.227L54.851 507.957L61.8763 506.57L63.0172 499.501Z" fill="#739A52"/>
<path d="M116.186 499.501L119.676 505.754L126.752 504.654L121.884 509.905L125.116 516.295L118.617 513.288L113.539 518.337L114.391 511.227L108.02 507.957L115.045 506.57L116.186 499.501Z" fill="#739A52"/>
<path d="M169.355 499.501L172.845 505.754L179.921 504.654L175.053 509.905L178.285 516.295L171.786 513.288L166.708 518.337L167.56 511.227L161.189 507.957L168.215 506.57L169.355 499.501Z" fill="#739A52"/>
<path d="M222.525 499.501L226.015 505.754L233.091 504.654L228.222 509.905L231.454 516.295L224.956 513.288L219.877 518.337L220.729 511.227L214.358 507.957L221.384 506.57L222.525 499.501Z" fill="#739A52"/>
<path d="M275.694 499.501L279.184 505.754L286.26 504.654L281.391 509.905L284.624 516.295L278.125 513.288L273.046 518.337L273.898 511.227L267.527 507.957L274.553 506.57L275.694 499.501Z" fill="#739A52"/>
<path d="M328.863 499.501L332.353 505.754L339.429 504.654L334.56 509.905L337.793 516.295L331.294 513.288L326.216 518.337L327.068 511.227L320.697 507.957L327.722 506.57L328.863 499.501Z" fill="#739A52"/>
<path d="M382.032 499.501L385.522 505.754L392.598 504.654L387.729 509.905L390.962 516.295L384.463 513.288L379.385 518.337L380.237 511.227L373.866 507.957L380.891 506.57L382.032 499.501Z" fill="#739A52"/>
<path d="M36.4326 539.67L39.9226 545.923L46.9986 544.823L42.1302 550.075L45.3625 556.465L38.8637 553.457L33.7854 558.506L34.6373 551.396L28.2664 548.126L35.2918 546.739L36.4326 539.67Z" fill="#739A52"/>
<path d="M89.6017 539.67L93.0917 545.923L100.168 544.823L95.2993 550.075L98.5316 556.465L92.0328 553.457L86.9545 558.506L87.8064 551.396L81.4355 548.126L88.4609 546.739L89.6017 539.67Z" fill="#739A52"/>
<path d="M142.771 539.67L146.261 545.923L153.337 544.823L148.468 550.075L151.701 556.465L145.202 553.457L140.124 558.506L140.976 551.396L134.605 548.126L141.63 546.739L142.771 539.67Z" fill="#739A52"/>
<path d="M195.94 539.67L199.43 545.923L206.506 544.823L201.638 550.075L204.87 556.465L198.371 553.457L193.293 558.506L194.145 551.396L187.774 548.126L194.799 546.739L195.94 539.67Z" fill="#739A52"/>
<path d="M249.109 539.67L252.599 545.923L259.675 544.823L254.807 550.075L258.039 556.465L251.54 553.457L246.462 558.506L247.314 551.396L240.943 548.126L247.968 546.739L249.109 539.67Z" fill="#739A52"/>
<path d="M302.278 539.67L305.768 545.923L312.844 544.823L307.976 550.075L311.208 556.465L304.709 553.457L299.631 558.506L300.483 551.396L294.112 548.126L301.137 546.739L302.278 539.67Z" fill="#739A52"/>
<path d="M355.447 539.67L358.937 545.923L366.013 544.823L361.145 550.075L364.377 556.465L357.878 553.457L352.8 558.506L353.652 551.396L347.281 548.126L354.307 546.739L355.447 539.67Z" fill="#739A52"/>
<path d="M9.84808 579.839L13.338 586.092L20.414 584.992L15.5456 590.244L18.778 596.634L12.2792 593.626L7.20085 598.675L8.05277 591.565L1.68188 588.295L8.7072 586.909L9.84808 579.839Z" fill="#739A52"/>
<path d="M63.0172 579.839L66.5072 586.092L73.5832 584.992L68.7148 590.244L71.9471 596.634L65.4483 593.626L60.37 598.675L61.2219 591.565L54.851 588.295L61.8763 586.909L63.0172 579.839Z" fill="#739A52"/>
<path d="M116.186 579.839L119.676 586.092L126.752 584.992L121.884 590.244L125.116 596.634L118.617 593.626L113.539 598.675L114.391 591.565L108.02 588.295L115.045 586.909L116.186 579.839Z" fill="#739A52"/>
<path d="M169.355 579.839L172.845 586.092L179.921 584.992L175.053 590.244L178.285 596.634L171.786 593.626L166.708 598.675L167.56 591.565L161.189 588.295L168.215 586.909L169.355 579.839Z" fill="#739A52"/>
<path d="M222.525 579.839L226.015 586.092L233.091 584.992L228.222 590.244L231.454 596.634L224.956 593.626L219.877 598.675L220.729 591.565L214.358 588.295L221.384 586.909L222.525 579.839Z" fill="#739A52"/>
<path d="M275.694 579.839L279.184 586.092L286.26 584.992L281.391 590.244L284.624 596.634L278.125 593.626L273.046 598.675L273.898 591.565L267.527 588.295L274.553 586.909L275.694 579.839Z" fill="#739A52"/>
<path d="M328.863 579.839L332.353 586.092L339.429 584.992L334.56 590.244L337.793 596.634L331.294 593.626L326.216 598.675L327.068 591.565L320.697 588.295L327.722 586.909L328.863 579.839Z" fill="#739A52"/>
<path d="M382.032 579.839L385.522 586.092L392.598 584.992L387.729 590.244L390.962 596.634L384.463 593.626L379.385 598.675L380.237 591.565L373.866 588.295L380.891 586.909L382.032 579.839Z" fill="#739A52"/>
<path d="M36.4326 620.008L39.9226 626.261L46.9986 625.161L42.1302 630.413L45.3625 636.803L38.8637 633.795L33.7854 638.844L34.6373 631.734L28.2664 628.464L35.2918 627.077L36.4326 620.008Z" fill="#739A52"/>
<path d="M89.6017 620.008L93.0917 626.261L100.168 625.161L95.2993 630.413L98.5316 636.803L92.0328 633.795L86.9545 638.844L87.8064 631.734L81.4355 628.464L88.4609 627.077L89.6017 620.008Z" fill="#739A52"/>
<path d="M142.771 620.008L146.261 626.261L153.337 625.161L148.468 630.413L151.701 636.803L145.202 633.795L140.124 638.844L140.976 631.734L134.605 628.464L141.63 627.077L142.771 620.008Z" fill="#739A52"/>
<path d="M195.94 620.008L199.43 626.261L206.506 625.161L201.638 630.413L204.87 636.803L198.371 633.795L193.293 638.844L194.145 631.734L187.774 628.464L194.799 627.077L195.94 620.008Z" fill="#739A52"/>
<path d="M249.109 620.008L252.599 626.261L259.675 625.161L254.807 630.413L258.039 636.803L251.54 633.795L246.462 638.844L247.314 631.734L240.943 628.464L247.968 627.077L249.109 620.008Z" fill="#739A52"/>
<path d="M302.278 620.008L305.768 626.261L312.844 625.161L307.976 630.413L311.208 636.803L304.709 633.795L299.631 638.844L300.483 631.734L294.112 628.464L301.137 627.077L302.278 620.008Z" fill="#739A52"/>
<path d="M355.447 620.008L358.937 626.261L366.013 625.161L361.145 630.413L364.377 636.803L357.878 633.795L352.8 638.844L353.652 631.734L347.281 628.464L354.307 627.077L355.447 620.008Z" fill="#739A52"/>
<path d="M9.84808 660.177L13.338 666.43L20.414 665.331L15.5456 670.582L18.778 676.972L12.2792 673.965L7.20085 679.013L8.05277 671.903L1.68188 668.634L8.7072 667.247L9.84808 660.177Z" fill="#739A52"/>
<path d="M63.0172 660.177L66.5072 666.43L73.5832 665.331L68.7148 670.582L71.9471 676.972L65.4483 673.965L60.37 679.013L61.2219 671.903L54.851 668.634L61.8763 667.247L63.0172 660.177Z" fill="#739A52"/>
<path d="M116.186 660.177L119.676 666.43L126.752 665.331L121.884 670.582L125.116 676.972L118.617 673.965L113.539 679.013L114.391 671.903L108.02 668.634L115.045 667.247L116.186 660.177Z" fill="#739A52"/>
<path d="M169.355 660.177L172.845 666.43L179.921 665.331L175.053 670.582L178.285 676.972L171.786 673.965L166.708 679.013L167.56 671.903L161.189 668.634L168.215 667.247L169.355 660.177Z" fill="#739A52"/>
<path d="M222.525 660.177L226.015 666.43L233.091 665.331L228.222 670.582L231.454 676.972L224.956 673.965L219.877 679.013L220.729 671.903L214.358 668.634L221.384 667.247L222.525 660.177Z" fill="#739A52"/>
<path d="M275.694 660.177L279.184 666.43L286.26 665.331L281.391 670.582L284.624 676.972L278.125 673.965L273.046 679.013L273.898 671.903L267.527 668.634L274.553 667.247L275.694 660.177Z" fill="#739A52"/>
<path d="M328.863 660.177L332.353 666.43L339.429 665.331L334.56 670.582L337.793 676.972L331.294 673.965L326.216 679.013L327.068 671.903L320.697 668.634L327.722 667.247L328.863 660.177Z" fill="#739A52"/>
<path d="M382.032 660.177L385.522 666.43L392.598 665.331L387.729 670.582L390.962 676.972L384.463 673.965L379.385 679.013L380.237 671.903L373.866 668.634L380.891 667.247L382.032 660.177Z" fill="#739A52"/>
<path d="M36.4326 700.346L39.9226 706.599L46.9986 705.5L42.1302 710.751L45.3625 717.141L38.8637 714.134L33.7854 719.182L34.6373 712.072L28.2664 708.803L35.2918 707.416L36.4326 700.346Z" fill="#739A52"/>
<path d="M89.6017 700.346L93.0917 706.599L100.168 705.5L95.2993 710.751L98.5316 717.141L92.0328 714.134L86.9545 719.182L87.8064 712.072L81.4355 708.803L88.4609 707.416L89.6017 700.346Z" fill="#739A52"/>
<path d="M142.771 700.346L146.261 706.599L153.337 705.5L148.468 710.751L151.701 717.141L145.202 714.134L140.124 719.182L140.976 712.072L134.605 708.803L141.63 707.416L142.771 700.346Z" fill="#739A52"/>
<path d="M195.94 700.346L199.43 706.599L206.506 705.5L201.638 710.751L204.87 717.141L198.371 714.134L193.293 719.182L194.145 712.072L187.774 708.803L194.799 707.416L195.94 700.346Z" fill="#739A52"/>
<path d="M249.109 700.346L252.599 706.599L259.675 705.5L254.807 710.751L258.039 717.141L251.54 714.134L246.462 719.182L247.314 712.072L240.943 708.803L247.968 707.416L249.109 700.346Z" fill="#739A52"/>
<path d="M302.278 700.346L305.768 706.599L312.844 705.5L307.976 710.751L311.208 717.141L304.709 714.134L299.631 719.182L300.483 712.072L294.112 708.803L301.137 707.416L302.278 700.346Z" fill="#739A52"/>
<path d="M355.447 700.346L358.937 706.599L366.013 705.5L361.145 710.751L364.377 717.141L357.878 714.134L352.8 719.182L353.652 712.072L347.281 708.803L354.307 707.416L355.447 700.346Z" fill="#739A52"/>
<path d="M9.84808 740.515L13.338 746.768L20.414 745.669L15.5456 750.92L18.778 757.31L12.2792 754.303L7.20085 759.351L8.05277 752.241L1.68188 748.972L8.7072 747.585L9.84808 740.515Z" fill="#739A52"/>
<path d="M63.0172 740.515L66.5072 746.768L73.5832 745.669L68.7148 750.92L71.9471 757.31L65.4483 754.303L60.37 759.351L61.2219 752.241L54.851 748.972L61.8763 747.585L63.0172 740.515Z" fill="#739A52"/>
<path d="M116.186 740.515L119.676 746.768L126.752 745.669L121.884 750.92L125.116 757.31L118.617 754.303L113.539 759.351L114.391 752.241L108.02 748.972L115.045 747.585L116.186 740.515Z" fill="#739A52"/>
<path d="M169.355 740.515L172.845 746.768L179.921 745.669L175.053 750.92L178.285 757.31L171.786 754.303L166.708 759.351L167.56 752.241L161.189 748.972L168.215 747.585L169.355 740.515Z" fill="#739A52"/>
<path d="M222.525 740.515L226.015 746.768L233.091 745.669L228.222 750.92L231.454 757.31L224.956 754.303L219.877 759.351L220.729 752.241L214.358 748.972L221.384 747.585L222.525 740.515Z" fill="#739A52"/>
<path d="M275.694 740.515L279.184 746.768L286.26 745.669L281.391 750.92L284.624 757.31L278.125 754.303L273.046 759.351L273.898 752.241L267.527 748.972L274.553 747.585L275.694 740.515Z" fill="#739A52"/>
<path d="M328.863 740.515L332.353 746.768L339.429 745.669L334.56 750.92L337.793 757.31L331.294 754.303L326.216 759.351L327.068 752.241L320.697 748.972L327.722 747.585L328.863 740.515Z" fill="#739A52"/>
<path d="M382.032 740.515L385.522 746.768L392.598 745.669L387.729 750.92L390.962 757.31L384.463 754.303L379.385 759.351L380.237 752.241L373.866 748.972L380.891 747.585L382.032 740.515Z" fill="#739A52"/>
<path d="M36.4326 780.685L39.9226 786.937L46.9986 785.838L42.1302 791.089L45.3625 797.479L38.8637 794.472L33.7854 799.521L34.6373 792.411L28.2664 789.141L35.2918 787.754L36.4326 780.685Z" fill="#739A52"/>
<path d="M89.6017 780.685L93.0917 786.937L100.168 785.838L95.2993 791.089L98.5316 797.479L92.0328 794.472L86.9545 799.521L87.8064 792.411L81.4355 789.141L88.4609 787.754L89.6017 780.685Z" fill="#739A52"/>
<path d="M142.771 780.685L146.261 786.937L153.337 785.838L148.468 791.089L151.701 797.479L145.202 794.472L140.124 799.521L140.976 792.411L134.605 789.141L141.63 787.754L142.771 780.685Z" fill="#739A52"/>
<path d="M195.94 780.685L199.43 786.937L206.506 785.838L201.638 791.089L204.87 797.479L198.371 794.472L193.293 799.521L194.145 792.411L187.774 789.141L194.799 787.754L195.94 780.685Z" fill="#739A52"/>
<path d="M249.109 780.685L252.599 786.937L259.675 785.838L254.807 791.089L258.039 797.479L251.54 794.472L246.462 799.521L247.314 792.411L240.943 789.141L247.968 787.754L249.109 780.685Z" fill="#739A52"/>
<path d="M302.278 780.685L305.768 786.937L312.844 785.838L307.976 791.089L311.208 797.479L304.709 794.472L299.631 799.521L300.483 792.411L294.112 789.141L301.137 787.754L302.278 780.685Z" fill="#739A52"/>
<path d="M355.447 780.685L358.937 786.937L366.013 785.838L361.145 791.089L364.377 797.479L357.878 794.472L352.8 799.521L353.652 792.411L347.281 789.141L354.307 787.754L355.447 780.685Z" fill="#739A52"/>
<path d="M9.84808 820.854L13.338 827.107L20.414 826.007L15.5456 831.258L18.778 837.648L12.2792 834.641L7.20085 839.69L8.05277 832.58L1.68188 829.31L8.7072 827.923L9.84808 820.854Z" fill="#739A52"/>
<path d="M63.0172 820.854L66.5072 827.107L73.5832 826.007L68.7148 831.258L71.9471 837.648L65.4483 834.641L60.37 839.69L61.2219 832.58L54.851 829.31L61.8763 827.923L63.0172 820.854Z" fill="#739A52"/>
<path d="M116.186 820.854L119.676 827.107L126.752 826.007L121.884 831.258L125.116 837.648L118.617 834.641L113.539 839.69L114.391 832.58L108.02 829.31L115.045 827.923L116.186 820.854Z" fill="#739A52"/>
<path d="M169.355 820.854L172.845 827.107L179.921 826.007L175.053 831.258L178.285 837.648L171.786 834.641L166.708 839.69L167.56 832.58L161.189 829.31L168.215 827.923L169.355 820.854Z" fill="#739A52"/>
<path d="M222.525 820.854L226.015 827.107L233.091 826.007L228.222 831.258L231.454 837.648L224.956 834.641L219.877 839.69L220.729 832.58L214.358 829.31L221.384 827.923L222.525 820.854Z" fill="#739A52"/>
<path d="M275.694 820.854L279.184 827.107L286.26 826.007L281.391 831.258L284.624 837.648L278.125 834.641L273.046 839.69L273.898 832.58L267.527 829.31L274.553 827.923L275.694 820.854Z" fill="#739A52"/>
<path d="M328.863 820.854L332.353 827.107L339.429 826.007L334.56 831.258L337.793 837.648L331.294 834.641L326.216 839.69L327.068 832.58L320.697 829.31L327.722 827.923L328.863 820.854Z" fill="#739A52"/>
<path d="M382.032 820.854L385.522 827.107L392.598 826.007L387.729 831.258L390.962 837.648L384.463 834.641L379.385 839.69L380.237 832.58L373.866 829.31L380.891 827.923L382.032 820.854Z" fill="#739A52"/>
</g>
<defs>
<filter id="filter0_n_48_151" x="-16.1927" y="24" width="432.768" height="818.286" filterUnits="userSpaceOnUse" color-interpolation-filters="sRGB">
<feFlood flood-opacity="0" result="BackgroundImageFix"/>
<feBlend mode="normal" in="SourceGraphic" in2="BackgroundImageFix" result="shape"/>
<feTurbulence type="fractalNoise" baseFrequency="1.25 1.25" stitchTiles="stitch" numOctaves="3" result="noise" seed="5753" />
<feColorMatrix in="noise" type="luminanceToAlpha" result="alphaNoise" />
<feComponentTransfer in="alphaNoise" result="coloredNoise1">
<feFuncA type="discrete" tableValues="0 0 0 0 0 0 0 0 0 0 0 0 1 1 1 1 1 1 1 1 1 1 1 1 1 1 1 1 1 1 1 1 1 1 1 1 1 1 0 0 0 0 0 0 0 0 0 0 0 0 0 0 0 0 0 0 0 0 0 0 0 0 0 0 0 0 0 0 0 0 0 0 0 0 0 0 0 0 0 0 0 0 0 0 0 0 0 0 0 0 0 0 0 0 0 0 0 0 0 0 "/>
</feComponentTransfer>
<feComposite operator="in" in2="shape" in="coloredNoise1" result="noise1Clipped" />
<feComponentTransfer in="alphaNoise" result="coloredNoise2">
<feFuncA type="discrete" tableValues="0 0 0 0 0 0 0 0 0 0 0 0 0 0 0 0 0 0 0 0 0 0 0 0 0 0 0 0 0 0 0 0 0 0 0 0 0 0 0 0 0 0 0 0 0 0 0 0 0 0 0 0 0 0 0 0 0 0 0 0 0 0 1 1 1 1 1 1 1 1 1 1 1 1 1 1 1 1 1 1 1 1 1 1 1 1 1 1 0 0 0 0 0 0 0 0 0 0 0 0 "/>
</feComponentTransfer>
<feComposite operator="in" in2="shape" in="coloredNoise2" result="noise2Clipped" />
<feFlood flood-color="#739A52" result="color1Flood" />
<feComposite operator="in" in2="noise1Clipped" in="color1Flood" result="color1" />
<feFlood flood-color="rgba(255, 200, 0, 0.4)" result="color2Flood" />
<feComposite operator="in" in2="noise2Clipped" in="color2Flood" result="color2" />
<feMerge result="effect1_noise_48_151">
<feMergeNode in="shape" />
<feMergeNode in="color1" />
<feMergeNode in="color2" />
</feMerge>
</filter>
<filter id="filter1_d_48_151" x="-36.1927" y="0" width="472.768" height="85.7991" filterUnits="userSpaceOnUse" color-interpolation-filters="sRGB">
<feFlood flood-opacity="0" result="BackgroundImageFix"/>
<feColorMatrix in="SourceAlpha" type="matrix" values="0 0 0 0 0 0 0 0 0 0 0 0 0 0 0 0 0 0 127 0" result="hardAlpha"/>
<feOffset dy="-4"/>
<feGaussianBlur stdDeviation="10"/>
<feComposite in2="hardAlpha" operator="out"/>
<feColorMatrix type="matrix" values="0 0 0 0 0 0 0 0 0 0 0 0 0 0 0 0 0 0 0.25 0"/>
<feBlend mode="normal" in2="BackgroundImageFix" result="effect1_dropShadow_48_151"/>
<feBlend mode="normal" in="SourceGraphic" in2="effect1_dropShadow_48_151" result="shape"/>
</filter>
</defs>
</svg>
